<svg width="320" height="320" viewBox="0 0 320 320" fill="none" xmlns="http://www.w3.org/2000/svg">
    <circle cx="160" cy="160" r="160" fill="#112A28" />
    <path
        d="M234.252 228.246H304.947L304.245 229.101C278.408 282.818 223.468 320 159.989 320C71.7725 319.998 0 248.217 0 159.996C0.000159412 152.846 0.474812 145.824 1.38905 138.911H33.7319C32.5799 145.769 31.9556 152.809 31.9554 159.996C31.9554 230.602 89.3869 288.041 159.989 288.043C188.814 288.043 215.428 278.449 236.84 262.308H124.89L147.407 228.246H195.417V155.595L234.252 96.8357V228.246Z"
        fill="white" />
    <path
        d="M160.011 0.0219333C248.229 0.0222703 320 71.7964 320 160.018C320 171.743 318.722 183.194 316.308 194.205H283.366C286.384 183.322 288.03 171.853 288.03 160.018C288.03 89.4114 230.593 31.9715 159.989 31.9715C124.031 31.9723 91.5133 46.8859 68.2388 70.83H203.963L181.453 104.885H124.934V190.418L86.099 249.192V104.885L9.80371 104.849C32.32 43.7183 91.1429 0.00127091 159.989 0L160.011 0.0219333Z"
        fill="#99E900" />
</svg>
    