<svg xmlns="http://www.w3.org/2000/svg" width="1600" height="564" viewBox="0 0 1600 564" fill="none" preserveAspectRatio="none">
  <path d="M0 0H1600V513.263C1600 542.294 1575.61 565.266 1546.64 563.332C1411.45 554.307 1048.43 531.752 797.5 531.821C548.335 531.89 187.972 554.324 53.3638 563.326C24.3954 565.264 0 542.291 0 513.258V0Z" fill="#D9D9D9"/>
  <path d="M0 0H1600V513.263C1600 542.294 1575.61 565.266 1546.64 563.332C1411.45 554.307 1048.43 531.752 797.5 531.821C548.335 531.89 187.972 554.324 53.3638 563.326C24.3954 565.264 0 542.291 0 513.258V0Z" fill="url(#paint0_linear_1433_3281)"/>
  <path d="M0 0H1600V513.263C1600 542.294 1575.61 565.266 1546.64 563.332C1411.45 554.307 1048.43 531.752 797.5 531.821C548.335 531.89 187.972 554.324 53.3638 563.326C24.3954 565.264 0 542.291 0 513.258V0Z" fill="url(#paint1_linear_1433_3281)"/>
  <path d="M0 0H1600V513.263C1600 542.294 1575.61 565.266 1546.64 563.332C1411.45 554.307 1048.43 531.752 797.5 531.821C548.335 531.89 187.972 554.324 53.3638 563.326C24.3954 565.264 0 542.291 0 513.258V0Z" fill="url(#paint2_radial_1433_3281)"/>
  <defs>
    <linearGradient id="paint0_linear_1433_3281" x1="0" y1="283.5" x2="1600" y2="283.5" gradientUnits="userSpaceOnUse">
      <stop stop-color="#2BFF93"/>
      <stop offset="1" stop-color="#C9FF31"/>
    </linearGradient>
    <linearGradient id="paint1_linear_1433_3281" x1="800" y1="0" x2="800" y2="567" gradientUnits="userSpaceOnUse">
      <stop stop-color="#FECB3A"/>
      <stop offset="1" stop-color="#FDD745"/>
    </linearGradient>
    <radialGradient id="paint2_radial_1433_3281" cx="0" cy="0" r="1" gradientUnits="userSpaceOnUse" gradientTransform="translate(800 567) rotate(-90) scale(567 2555.62)">
      <stop stop-color="#BEF428"/>
      <stop offset="1" stop-color="#00DD55"/>
    </radialGradient>
  </defs>
</svg>