<svg xmlns="http://www.w3.org/2000/svg" width="176" height="169" fill="none" xmlns:v="https://vecta.io/nano"><g filter="url(#A)"><path d="M125.122 65.265v12.46c-.02 9.75-2.99 18.52-10.22 25.11-5.59 5.1-11.83 9.6-18.2 13.74-5.06 3.28-10.78 2.95-16.22.27-8.15-4.02-15.27-9.44-21.17-16.33-5.51-6.43-8.08-14.11-8.3-22.47-.22-8.8-.12-17.61-.03-26.42.06-5.58 2.47-8.6 7.7-10.26l24.64-7.94c3.64-1.23 6.99-1.18 10.63.13 7.81 2.82 15.73 5.31 23.62 7.89 5.28 1.72 7.03 3.83 7.16 9.36.12 4.82.02 9.64.02 14.46h.34.03zm-5.01 1.26h-.12l.04-14.45c.11-3.16-1.15-4.85-4.18-5.79l-24.65-7.94c-1.78-.54-3.99-.64-5.75-.1-8.1 2.47-16.08 5.32-24.16 7.84-3.56 1.11-5.06 3.11-4.98 6.9.19 8.8.05 17.61.06 26.41 0 6.76 2.28 12.75 6.64 17.83 5.13 5.98 11.24 10.82 18.29 14.41 4.95 2.52 10 2.78 14.68-.37 4.94-3.32 9.95-6.68 14.31-10.7 6.93-6.37 10.32-14.5 9.84-24.08-.16-3.31-.03-6.64-.03-9.96h.01z" fill="#99e900"/><path d="M104.572 66.125c-.71.96-1.18 1.86-1.88 2.5l-17.35 15.74c-.81.71-2.95.98-3.75.43-2.85-1.99-5.5-4.31-7.95-6.77-.6-.6-.64-2.58-.1-3.26.49-.62 2.12-.38 3.25-.42.24 0 .51.39.75.62 6.16 5.71 5.36 5.02 11.49-.52 3.58-3.23 6.95-6.69 10.54-9.89.68-.61 2.09-.87 3-.63.76.2 1.27 1.35 1.99 2.21l.01-.01z" fill="#99e900"/></g><defs><filter id="A" x=".879" y="-17.464" width="174.243" height="186.409" filterUnits="userSpaceOnUse" color-interpolation-filters="sRGB"><feFlood flood-opacity="0" result="A"/><feColorMatrix in="SourceAlpha" values="0 0 0 0 0 0 0 0 0 0 0 0 0 0 0 0 0 0 127 0" result="B"/><feOffset/><feGaussianBlur stdDeviation="25"/><feComposite in2="B" operator="out"/><feColorMatrix values="0 0 0 0 0.6 0 0 0 0 0.913725 0 0 0 0 0 0 0 0 0.5 0"/><feBlend in2="A"/><feBlend in="SourceGraphic"/></filter></defs></svg>