<svg xmlns="http://www.w3.org/2000/svg" width="180" height="169" fill="none" xmlns:v="https://vecta.io/nano"><g filter="url(#A)"><path d="M129.799 75.131c0 7.65-.21 15.31.06 22.95.24 6.69-2.85 11.05-8.53 13.96-11.77 6.03-24.39 7.54-37.36 6.52-8.31-.66-16.48-2.15-24.03-6.03-6.54-3.36-9.89-8.44-9.81-15.96v-43.91c-.09-7.27 3.21-12.08 9.71-14.73 11.95-4.87 24.51-6.23 37.21-4.93 7.37.76 14.79 2.3 21.85 4.54 8.62 2.74 10.86 6.68 10.89 15.63v21.96h.01zm-36.68-38.01c-8.64.77-14.56.73-20.19 1.97-5.25 1.16-10.49 3.17-15.18 5.79-3.72 2.08-3.44 5.45.03 8.08 2.09 1.59 4.46 3.06 6.94 3.85 17.17 5.5 34.41 5.24 51.5-.26 3.8-1.22 8.87-2.7 8.64-7.72-.22-4.76-5.03-6.56-9-7.48-8.36-1.94-16.89-3.18-22.73-4.24l-.01.01zm-37.14 21.11c-2.27 13.85-.9 16.95 11.49 20.88 15.27 4.85 30.85 4.39 46.15-.39 10.34-3.23 11.95-5.89 11.48-16.65-.18-4.16-.28-4.2-4.3-2.35-1.2.55-2.42 1.11-3.69 1.46-20.58 5.73-40.92 6.15-61.12-2.96l-.01.01zm33.43 45.21c10.46.36 20.26-1.02 29.49-5.33 3.11-1.45 5.82-3.47 6.1-7.25.22-2.97.07-5.97.06-8.96 0-2.3-.82-2.81-3.09-1.85-4.26 1.8-8.55 3.83-13.03 4.75-17.25 3.54-34.31 3.59-50.53-4.61-1.6-.81-2.93-1.27-3.04 1.17-.47 10.42-1.2 13.65 9.51 18.1 7.94 3.29 16.31 4.46 24.53 3.99v-.01zm-33.98-3.13c.37 5.27 4.23 6.91 7.69 8.47 11.5 5.18 23.72 6.74 36.08 4.93 6.79-.99 13.4-3.59 19.93-5.91 2.63-.93 5.13-2.81 5.78-6.81-23.52 9.73-46.39 10.83-69.47-.69l-.01.01z" fill="#99e900"/></g><defs><filter id="A" x=".127" y="-17.464" width="179.745" height="186.318" filterUnits="userSpaceOnUse" color-interpolation-filters="sRGB"><feFlood flood-opacity="0" result="A"/><feColorMatrix in="SourceAlpha" values="0 0 0 0 0 0 0 0 0 0 0 0 0 0 0 0 0 0 127 0" result="B"/><feOffset/><feGaussianBlur stdDeviation="25"/><feComposite in2="B" operator="out"/><feColorMatrix values="0 0 0 0 0.6 0 0 0 0 0.913725 0 0 0 0 0 0 0 0 0.5 0"/><feBlend in2="A"/><feBlend in="SourceGraphic"/></filter></defs></svg>