<svg xmlns="http://www.w3.org/2000/svg" width="172" height="169" fill="none" xmlns:v="https://vecta.io/nano"><g filter="url(#A)"><path d="M85.579 117.991c-7.49 0-14.98.09-22.47-.03-8.03-.13-12.31-4.45-12.35-12.35l-.02-27.931c-.05-5.7 2.51-9.65 7.81-11.42 3.11-1.05 3.99-2.78 4.03-5.85.05-3.62.19-7.37 1.18-10.81 3.31-11.39 13.27-18.23 23.93-16.9 11.9 1.49 20.8 10.81 21.55 22.6.08 1.33.2 2.68.03 3.98-.51 3.87.84 5.98 4.83 7.2 4.79 1.46 6.98 5.55 7.05 10.42v29.421c-.11 7.11-4.39 11.43-11.62 11.62-7.98.21-15.97.05-23.96.05v-.02l.01.02zm.09-4.69l21.95-.02c6.31-.08 8.88-2.53 8.97-8.71v-25.91c-.09-5.95-2.56-8.43-8.66-8.49a2470.83 2470.83 0 0 0-43.9 0c-6.11.05-8.68 2.84-8.73 9.01v24.921c.04 6.81 2.41 9.14 9.41 9.2l20.95.01.01-.01zm.32-48v.02c4.65 0 9.31-.11 13.96.04 2.89.09 4.47-.87 4.29-3.93-.18-2.98.02-6.04-.61-8.92-1.54-7.05-5.98-11.86-12.86-13.92-6.5-1.94-12.51-.61-17.44 4.32-5.54 5.54-6.53 12.5-5.73 19.82.11.97 2.2 2.38 3.44 2.45 4.97.28 9.96.12 14.95.12z" fill="#99e900"/><path d="M85.879 83.281c3.27-.03 5.28 2.88 4.37 6.26l-2.11 7.98c-.36 1.07-1.4 1.91-2.14 2.861-.74-.91-1.81-1.721-2.16-2.76-.88-2.59-1.4-5.3-2.13-7.94-.95-3.44.93-6.37 4.17-6.4z" fill="#99e900"/></g><defs><filter id="A" x=".738" y="-17.464" width="170.523" height="185.513" filterUnits="userSpaceOnUse" color-interpolation-filters="sRGB"><feFlood flood-opacity="0" result="A"/><feColorMatrix in="SourceAlpha" values="0 0 0 0 0 0 0 0 0 0 0 0 0 0 0 0 0 0 127 0" result="B"/><feOffset/><feGaussianBlur stdDeviation="25"/><feComposite in2="B" operator="out"/><feColorMatrix values="0 0 0 0 0.6 0 0 0 0 0.913725 0 0 0 0 0 0 0 0 0.5 0"/><feBlend in2="A"/><feBlend in="SourceGraphic"/></filter></defs></svg>