<svg xmlns="http://www.w3.org/2000/svg" width="176" height="169" fill="none" xmlns:v="https://vecta.io/nano"><g filter="url(#A)"><path d="M125.243 66.423l.02 9.49c.47 11.74-3.65 21.68-12.56 29.18-5.29 4.46-11.23 8.25-17.23 11.72-5.05 2.92-10.6 2.56-15.82-.16-8.21-4.27-15.5-9.69-21.27-17.02-5.03-6.4-7.3-13.81-7.53-21.79-.25-8.81-.14-17.64-.04-26.46.06-5.22 2.2-7.92 7.13-9.55l25.09-8.35c3.29-1.14 6.36-1.32 9.7-.16l26.04 8.67c4.36 1.46 6.25 3.87 6.37 8.45.14 5.32.03 10.65.03 15.98h.07zm-69.13-.32c0 2.33-.23 4.68.04 6.97.67 5.71.5 11.83 2.59 17.01 4.53 11.24 14.09 17.9 24.93 22.34 2.86 1.17 7.39.96 10.02-.57 6.53-3.8 12.87-8.23 18.42-13.34 4.64-4.28 7.62-10.14 7.76-16.81l.26-29.86c0-2.83-1.54-4.42-4.31-5.3l-24.58-8.14c-1.91-.59-4.33-.49-6.26.1-8.42 2.56-16.71 5.51-25.11 8.13-2.93.91-3.87 2.64-3.79 5.52.13 4.65.04 9.3.04 13.96l-.01-.01z" fill="#99e900"/><path d="M87.543 77.964l-2.46-3.3c-1.48-1.59-1.88-3.12-.09-4.7l14.28-12.47c.55-.46 2.7-.13 2.78.19.32 1.2.64 3.08-.02 3.75-2.91 2.96-6.04 5.73-9.31 8.28-2.42 1.89-2.71 3.5-.4 5.56 2.62 2.34 2.24 4.34-.45 6.49-3.63 2.91-7.03 6.12-10.56 9.15-1.33 1.14-2.76 3-4.62.96-2.03-2.22 0-3.54 1.47-4.87l7.39-6.71c.7-.65 1.25-1.46 1.99-2.35v.02z" fill="#99e900"/></g><defs><filter id="A" x=".701" y="-17.464" width="174.599" height="186.317" filterUnits="userSpaceOnUse" color-interpolation-filters="sRGB"><feFlood flood-opacity="0" result="A"/><feColorMatrix in="SourceAlpha" values="0 0 0 0 0 0 0 0 0 0 0 0 0 0 0 0 0 0 127 0" result="B"/><feOffset/><feGaussianBlur stdDeviation="25"/><feComposite in2="B" operator="out"/><feColorMatrix values="0 0 0 0 0.6 0 0 0 0 0.913725 0 0 0 0 0 0 0 0 0.5 0"/><feBlend in2="A"/><feBlend in="SourceGraphic"/></filter></defs></svg>