<svg width="79" height="81" viewBox="0 0 79 81" fill="none" xmlns="http://www.w3.org/2000/svg">
<g filter="url(#filter0_d_1443_3439)">
<path d="M25.0489 49.3711C25.9409 48.9535 27.0168 49.1459 27.5925 49.7595C28.2989 50.5123 28.3299 51.3614 27.6768 52.2397C25.4408 55.2423 23.203 58.2431 20.9669 61.2457C20.9016 61.3334 20.8536 61.4366 20.8983 61.672C22.11 60.9141 23.3216 60.1595 24.5299 59.3964C25.1091 59.0303 25.6729 58.6367 26.2555 58.2792C27.0994 57.7602 27.9261 57.822 28.5328 58.4236C29.2478 59.1317 29.4695 60.1578 28.9402 60.9226C28.5758 61.4503 28.1013 61.959 27.5617 62.2976C23.4213 64.8894 19.2568 67.4434 15.0924 69.9974C13.9219 70.7141 12.9834 70.6557 12.1945 69.8771C11.3146 69.0092 11.2562 68.0381 12.0364 66.9502C14.1384 64.0267 16.2491 61.1064 18.3511 58.1829C18.6931 57.7068 19.0145 57.2135 19.3445 56.7289C19.2861 56.6859 19.2275 56.6429 19.1708 56.6L19.1727 56.5983C18.4542 57.0022 17.7494 57.4319 17.0155 57.8066C15.9482 58.3514 14.881 58.0574 14.3379 57.1087C13.7708 56.117 14.0337 54.9845 15.1182 54.3967C17.148 53.2933 19.2242 52.2706 21.2867 51.2256C22.5344 50.5931 23.7839 49.964 25.0489 49.3711Z" fill="#99E900"/>
<path d="M61.5356 38.4263C62.7422 38.3335 63.7975 39.1928 63.8834 40.4285C64.3269 46.8084 62.8144 52.6607 59.0641 57.8804C55.2675 63.1655 50.3055 66.8678 44.0047 68.6174C38.931 70.0268 33.8487 69.9768 28.8163 68.3234C27.5101 67.8937 26.9894 67.0979 27.1441 65.8089C27.2919 64.5869 28.2887 63.8961 29.466 64.2708C31.7107 64.984 34.0035 65.467 36.3547 65.4755C39.7629 65.4876 43.0628 64.8465 46.1564 63.3701C53.1413 60.0358 57.6583 54.675 59.3203 47.0525C59.6227 45.6655 59.6657 44.2235 59.829 42.8055C59.7757 42.8021 59.7224 42.7988 59.6674 42.7936L59.6657 42.7953C59.6657 42.0803 59.6726 41.3636 59.6657 40.6486C59.6502 39.3441 60.3411 38.5191 61.5356 38.4263Z" fill="#99E900"/>
<path fill-rule="evenodd" clip-rule="evenodd" d="M65.7655 10.528C67.6259 10.3081 68.8356 11.4223 68.8145 12.5441C68.5275 18.2468 67.0339 23.0094 64.8339 27.576C62.0462 33.3612 58.0998 38.2579 53.2376 42.4069C51.5516 43.8454 50.2127 45.2565 50.0047 47.6695C49.7916 50.1479 48.4889 52.2122 46.5794 53.9017C44.4568 55.7768 42.4303 57.7618 40.3833 59.7212C39.6133 60.4568 38.7522 60.6854 37.8035 60.242C36.8685 59.8054 36.4302 58.9976 36.4148 57.9578C36.389 56.1549 36.3186 54.3503 36.3271 52.5474C36.3323 51.5952 36.0299 50.8577 35.3355 50.1977C33.4277 48.3845 31.5285 46.5558 29.6946 44.6686C28.9075 43.8591 27.9398 43.909 27.0031 43.8489C25.1778 43.7303 23.3457 43.7148 21.5169 43.6547C20.5957 43.6237 19.9375 43.1562 19.561 42.3502C19.2087 41.5939 19.2877 40.8496 19.8721 40.1999C21.9569 37.8831 24.0573 35.5766 26.1197 33.2391C27.5394 31.6287 29.5572 31.2971 31.4271 30.6337C31.5337 30.5958 31.6489 30.5734 31.7623 30.5665C34.9711 30.3517 36.5455 27.9111 38.3742 25.7747C44.3209 18.8277 51.5413 13.8021 60.4614 11.4474C62.1905 10.9902 63.9849 10.7394 65.7655 10.528ZM45.9021 47.7606C44.0563 48.6303 42.4132 49.3934 40.7856 50.1875C40.6343 50.2614 40.49 50.5399 40.4986 50.7152C40.5433 51.6776 40.6359 52.6401 40.7339 53.8552C42.7242 51.9302 44.8761 50.4762 45.9021 47.7606ZM64.3302 15.0655C63.9332 15.0947 63.7046 15.0929 63.4846 15.1324C59.7911 15.7701 56.333 17.0677 53.0572 18.8723C49.3911 20.8918 46.2322 23.5576 43.2794 26.4983C38.8812 30.8776 35.3819 35.8292 33.4449 41.7829C33.3659 42.0286 33.407 42.455 33.5703 42.6149C34.9367 43.9589 36.3358 45.2685 37.7486 46.5627C37.9033 46.7054 38.259 46.8101 38.4257 46.7311C40.6428 45.6844 42.9512 44.7752 45.0257 43.4913C49.5665 40.6795 53.3511 36.9843 56.6373 32.7837C60.2466 28.1707 62.7903 23.0436 64.0055 17.2911C64.1515 16.6002 64.2117 15.8921 64.3286 15.0671L64.3302 15.0655ZM31.9651 34.7344C30.0556 34.9097 26.943 37.6701 26.106 39.8804C27.1561 39.8804 28.1821 39.9009 29.2047 39.8631C29.4075 39.8562 29.6963 39.6672 29.7822 39.4851C30.5179 37.9417 31.214 36.381 31.9651 34.7344Z" fill="#99E900"/>
<path d="M38.7918 15.8268C39.8986 15.8148 40.6875 16.5985 40.7975 17.7552C40.8886 18.7125 40.1616 19.6235 39.0909 19.7575C35.8201 20.1683 32.6182 20.8266 29.6379 22.2979C22.5361 25.8041 17.7872 31.2901 15.6973 38.9797C14.8104 42.2453 14.9221 45.528 15.6491 48.8125C15.8863 49.8798 15.2023 50.9213 14.1711 51.1791C13.0247 51.4661 12.0174 50.9248 11.6531 49.8214C11.5912 49.6324 11.5243 49.4381 11.5037 49.2422C11.306 47.4272 11.1169 45.6106 11 44.5071L11.0018 44.5088C11.105 37.3624 13.3306 31.7352 17.4246 26.8283C20.7211 22.877 24.7017 19.8124 29.4694 17.8428C31.9306 16.8253 34.5018 16.1774 37.1761 15.9935C37.7158 15.9557 38.2521 15.8337 38.7918 15.8268Z" fill="#99E900"/>
</g>
<defs>
<filter id="filter0_d_1443_3439" x="0.974122" y="0.474122" width="77.8667" height="80.0518" filterUnits="userSpaceOnUse" color-interpolation-filters="sRGB">
<feFlood flood-opacity="0" result="BackgroundImageFix"/>
<feColorMatrix in="SourceAlpha" type="matrix" values="0 0 0 0 0 0 0 0 0 0 0 0 0 0 0 0 0 0 127 0" result="hardAlpha"/>
<feOffset/>
<feGaussianBlur stdDeviation="5.01294"/>
<feComposite in2="hardAlpha" operator="out"/>
<feColorMatrix type="matrix" values="0 0 0 0 0.6 0 0 0 0 0.913725 0 0 0 0 0 0 0 0 0.5 0"/>
<feBlend mode="normal" in2="BackgroundImageFix" result="effect1_dropShadow_1443_3439"/>
<feBlend mode="normal" in="SourceGraphic" in2="effect1_dropShadow_1443_3439" result="shape"/>
</filter>
</defs>
</svg>
