<svg width="82" height="81" viewBox="0 0 82 81" fill="none" xmlns="http://www.w3.org/2000/svg">
<g filter="url(#filter0_d_1443_3430)">
<path d="M41.1595 10.5009C56.881 10.3873 71.2751 22.9713 71.4242 40.5491C71.5519 55.598 59.275 70.1643 41.8445 70.4944C24.091 70.8315 10.8504 56.0009 11.0013 40.3858C11.1628 23.8888 24.7636 10.3714 41.1595 10.5009ZM26.5737 50.2511C26.5737 44.8508 26.5613 39.5322 26.5879 34.2154C26.5915 33.431 26.721 32.6324 26.9038 31.8658C27.5675 29.0707 30.2987 27.6777 32.3839 27.9226C35.0884 28.2384 37.1754 30.5668 37.1967 33.1986C37.2127 35.179 37.2233 37.1613 37.2038 39.1418C37.1985 39.7274 37.3458 40.0167 37.9989 39.9741C39.5215 39.8747 40.8454 40.4249 41.9758 41.4045C42.5029 41.8606 43.0175 41.9386 43.683 41.7967C45.7842 41.3459 47.6795 41.8446 49.2767 43.2749C49.7878 43.7328 50.2918 43.9156 50.9502 43.8553C52.3131 43.731 53.5926 43.9564 54.7355 44.7763C56.6556 46.1552 57.3726 48.1392 57.4223 50.3753C57.4915 53.449 57.4382 56.5244 57.44 59.5999C57.44 59.9069 57.4666 60.2121 57.4862 60.5883C66.9042 53.0763 70.7711 38.8508 62.9591 26.6998C54.9076 14.1727 38.659 11.1078 26.9269 19.0192C14.5878 27.3387 12.6446 42.361 18.6642 53.3407C20.8629 49.0585 22.2063 48.5208 26.5737 50.2511ZM51.4009 47.9564C51.4009 48.7497 51.4133 49.4844 51.3991 50.2191C51.3708 51.6157 50.3787 52.7125 49.1684 52.7072C47.8641 52.7001 46.998 51.7169 46.9892 50.2227C46.9838 49.3353 47.0886 48.4338 46.9555 47.5678C46.8703 47.0088 46.5615 46.3699 46.1444 46.0026C45.3689 45.3211 44.4319 45.7665 44.3645 46.7799C44.3095 47.6051 44.3467 48.4338 44.3183 49.2626C44.3006 49.7896 44.3361 50.3433 44.1835 50.8349C43.8694 51.8429 42.9022 52.441 42.0202 52.2883C40.7921 52.0754 40.0894 51.2253 40.1018 49.9174C40.1142 48.6769 40.2101 47.4329 40.1586 46.196C40.1355 45.6388 40.0113 44.8863 39.6386 44.5882C39.1222 44.1747 38.3307 44.1055 37.6563 43.8907C37.5179 44.3646 37.2766 44.8331 37.2588 45.3105C37.2056 46.6379 37.2464 47.9706 37.25 49.2998C37.2517 50.0878 36.8773 50.6486 36.1994 51.0141C34.7158 51.811 32.9766 50.7426 32.9731 49.0141C32.9642 43.8695 32.966 38.7248 32.9766 33.5801C32.9766 32.8223 32.6891 32.3006 31.9296 32.1746C31.3812 32.0841 30.8524 32.7638 30.8293 33.534C30.808 34.2438 30.8222 34.9537 30.8222 35.6617C30.8222 42.1658 30.824 48.6698 30.8169 55.1757C30.8151 56.8012 29.8834 57.7542 28.4105 57.4401C27.8089 57.3123 27.2623 56.7125 26.792 56.2298C26.036 55.4525 25.4131 54.5439 24.6287 53.8003C24.3732 53.559 23.7946 53.6584 23.3634 53.6016C23.3403 54.0026 23.1664 54.4747 23.3173 54.7924C24.2827 56.8119 25.241 58.8439 26.3696 60.7711C26.8506 61.5928 27.6421 62.3399 28.4619 62.8403C32.1443 65.0835 36.2295 66.0542 40.4975 66.1891C44.6804 66.3222 48.6893 65.4686 52.4941 63.6886C53.0194 63.4437 53.2306 63.1385 53.2235 62.5422C53.1933 59.7329 53.2111 56.9255 53.2111 54.1162C53.2111 52.8154 53.2288 51.5146 53.1986 50.2138C53.1685 48.9094 52.5385 48.0736 51.4027 47.9529L51.4009 47.9564Z" fill="#99E900"/>
</g>
<defs>
<filter id="filter0_d_1443_3430" x="0.647942" y="0.147942" width="81.1294" height="80.7041" filterUnits="userSpaceOnUse" color-interpolation-filters="sRGB">
<feFlood flood-opacity="0" result="BackgroundImageFix"/>
<feColorMatrix in="SourceAlpha" type="matrix" values="0 0 0 0 0 0 0 0 0 0 0 0 0 0 0 0 0 0 127 0" result="hardAlpha"/>
<feOffset/>
<feGaussianBlur stdDeviation="5.17603"/>
<feComposite in2="hardAlpha" operator="out"/>
<feColorMatrix type="matrix" values="0 0 0 0 0.6 0 0 0 0 0.913725 0 0 0 0 0 0 0 0 0.5 0"/>
<feBlend mode="normal" in2="BackgroundImageFix" result="effect1_dropShadow_1443_3430"/>
<feBlend mode="normal" in="SourceGraphic" in2="effect1_dropShadow_1443_3430" result="shape"/>
</filter>
</defs>
</svg>
