<svg width="91" height="83" viewBox="0 0 91 83" fill="none" xmlns="http://www.w3.org/2000/svg">
<g filter="url(#filter0_d_1443_3433)">
<path d="M54.7072 31.082C59.8856 26.3154 65.0387 21.5721 70.1861 16.8327C68.4923 16.8327 66.8355 16.8366 65.1767 16.8327C64.3434 16.8308 63.4712 16.9687 62.6885 16.7647C61.6085 16.4831 60.9093 15.2535 61.0413 14.294C61.2142 13.0412 62.1815 12.1593 63.6033 12.0875C66.7034 11.9282 69.8073 11.8175 72.9093 11.6815C74.201 11.6252 75.4927 11.5281 76.7863 11.5009C78.1984 11.4698 79.0841 12.2836 79.0336 13.6919C78.8744 18.1807 78.6704 22.6676 78.4431 27.1526C78.381 28.3918 77.571 29.1027 76.3726 29.1494C75.0401 29.1999 74.0961 28.6191 74.0281 27.3876C73.931 25.6239 74.067 23.8467 74.1155 22.0752C74.1388 21.2516 74.1913 20.43 74.2301 19.6084C74.1485 19.5715 74.065 19.5346 73.9834 19.4977C72.8957 20.5329 71.8196 21.5779 70.7202 22.6016C66.0352 26.97 61.3521 31.3384 56.6535 35.6913C55.4006 36.8528 54.4275 36.882 53.0212 35.8234C47.0795 31.354 41.1377 26.8865 35.2251 22.3801C34.4637 21.8013 34.0325 21.8013 33.3119 22.485C28.485 27.0807 23.6019 31.6181 18.7362 36.173C17.934 36.9247 17.1493 37.6978 16.3102 38.4068C15.4186 39.1585 13.8861 39.0477 13.1305 38.2397C12.2506 37.2996 12.1651 36.0506 13.078 35.0931C14.2823 33.8305 15.5857 32.6631 16.8599 31.4705C21.7508 26.8962 26.6456 22.3258 31.5424 17.7573C31.7774 17.5378 32.0377 17.3416 32.2902 17.1415C33.6673 16.0441 34.4637 16.0305 35.9321 17.1221C38.1115 18.7401 40.2792 20.3756 42.4527 22.0014C46.2831 24.8645 50.1154 27.7236 53.9497 30.5828C54.1789 30.7538 54.4256 30.9014 54.7033 31.0859L54.7072 31.082Z" fill="#99E900"/>
<path d="M73.6221 54.109C73.6221 59.0912 73.6299 64.0754 73.6163 69.0576C73.6124 70.4813 72.6179 71.472 71.2719 71.4661C70.0307 71.4603 68.9798 70.3959 68.9779 69.0712C68.9662 58.9747 68.9604 48.8801 68.9663 38.7836C68.9663 37.3773 69.8947 36.4838 71.2757 36.4838C72.6568 36.4838 73.6027 37.3637 73.6085 38.77C73.6299 43.8823 73.6163 48.9947 73.6163 54.107C73.6163 54.107 73.6183 54.107 73.6202 54.107L73.6221 54.109Z" fill="#99E900"/>
<path d="M46.0169 56.7506C46.0169 60.8257 46.0189 64.8989 46.015 68.974C46.015 70.3629 45.1001 71.4253 43.8706 71.4933C42.3672 71.5768 41.5339 70.8776 41.3261 69.345C41.2834 69.0265 41.2562 68.7021 41.2542 68.3797C41.2484 60.7811 41.2465 53.1825 41.2484 45.5819C41.2484 45.0652 41.2542 44.5447 41.3203 44.0338C41.4776 42.7907 42.5401 41.9361 43.7541 42.0371C45.1021 42.1497 46.0092 43.051 46.0131 44.3349C46.0228 48.4741 46.0169 52.6134 46.0169 56.7526V56.7506Z" fill="#99E900"/>
<path d="M30.6974 56.4748C30.6974 60.5499 30.6314 64.625 30.7304 68.6982C30.7693 70.3046 29.1338 71.6506 27.3468 70.9067C26.4455 70.5299 26.0104 69.8559 26.0104 68.8692C26.0124 64.5687 25.9988 60.2683 25.9968 55.9659C25.9929 52.085 25.9832 48.2041 26.0027 44.3233C26.0104 42.6936 26.8398 41.8098 28.2733 41.7962C29.8233 41.7807 30.6935 42.5945 30.7013 44.1543C30.7188 48.2605 30.7071 52.3686 30.7071 56.4748H30.6974Z" fill="#99E900"/>
<path d="M59.5787 59.4233C59.5787 62.368 59.6059 65.3146 59.5593 68.2593C59.5476 68.9449 59.435 69.7063 59.1145 70.2949C58.5997 71.2428 57.3916 71.5866 56.4087 71.2758C55.4511 70.9728 54.7927 69.955 54.7946 68.7662C54.7966 63.0051 54.8024 57.244 54.8043 51.4829C54.8043 50.9002 54.7694 50.3155 54.8043 49.7347C54.8781 48.4722 55.7639 47.6214 56.9798 47.5962C58.3861 47.567 59.4194 48.311 59.4466 49.6221C59.5146 52.8872 59.4699 56.1563 59.4699 59.4233C59.5068 59.4233 59.5437 59.4233 59.5806 59.4233H59.5787Z" fill="#99E900"/>
<path d="M12 61.6921C12 59.3981 12 57.1061 12 54.8121C12 53.4738 12.6876 52.5998 13.822 52.4832C15.2574 52.3356 16.3665 53.0989 16.617 54.4159C16.6656 54.6684 16.6773 54.9287 16.6773 55.187C16.6831 59.6448 16.6928 64.1026 16.6831 68.5603C16.6792 70.1065 15.6905 71.1204 14.2629 71.1068C12.9421 71.0951 12.0622 70.2871 12.0447 68.9585C12.0117 66.5364 12.035 64.1142 12.035 61.6901C12.0233 61.6901 12.0117 61.6901 12 61.6901V61.6921Z" fill="#99E900"/>
</g>
<defs>
<filter id="filter0_d_1443_3433" x="0.669429" y="0.169429" width="89.6968" height="82.6611" filterUnits="userSpaceOnUse" color-interpolation-filters="sRGB">
<feFlood flood-opacity="0" result="BackgroundImageFix"/>
<feColorMatrix in="SourceAlpha" type="matrix" values="0 0 0 0 0 0 0 0 0 0 0 0 0 0 0 0 0 0 127 0" result="hardAlpha"/>
<feOffset/>
<feGaussianBlur stdDeviation="5.66529"/>
<feComposite in2="hardAlpha" operator="out"/>
<feColorMatrix type="matrix" values="0 0 0 0 0.6 0 0 0 0 0.913725 0 0 0 0 0 0 0 0 0.5 0"/>
<feBlend mode="normal" in2="BackgroundImageFix" result="effect1_dropShadow_1443_3433"/>
<feBlend mode="normal" in="SourceGraphic" in2="effect1_dropShadow_1443_3433" result="shape"/>
</filter>
</defs>
</svg>
