<svg width="41" height="48" viewBox="0 0 41 48" fill="none" xmlns="http://www.w3.org/2000/svg">
<g filter="url(#filter0_d_1456_4302)">
<path d="M20.6169 18.031C23.1827 18.031 25.7471 18.0272 28.3129 18.031C29.2828 18.0322 29.3141 18.0624 29.3154 19.002C29.3179 23.3617 29.3204 27.7201 29.3141 32.0797C29.3116 33.6332 28.7935 34.1426 27.2465 34.1627C26.5031 34.1728 26.433 34.2407 26.4217 35.0004C26.3992 36.4671 26.403 37.9337 26.3529 39.3978C26.3266 40.1651 25.9111 40.745 25.2565 41.1236C23.9624 41.8707 22.3429 41.15 22.0187 39.6834C21.9424 39.3387 21.9223 38.9777 21.9186 38.623C21.9061 37.3866 21.8948 36.1501 21.9198 34.9136C21.9323 34.335 21.7033 34.1149 21.1401 34.1552C20.7246 34.1854 20.3053 34.1803 19.8898 34.1564C19.3754 34.1275 19.1801 34.3539 19.1864 34.8608C19.2002 36.2231 19.2052 37.5853 19.1814 38.9475C19.1601 40.1513 18.5994 40.9701 17.6382 41.2959C16.3203 41.7424 14.8835 40.9035 14.7746 39.5098C14.662 38.0721 14.7045 36.6218 14.6857 35.1765C14.6732 34.1879 14.662 34.1715 13.6607 34.1602C12.3929 34.1464 11.8046 33.6042 11.7996 32.3225C11.7821 27.8169 11.7996 23.3114 11.7821 18.8058C11.7796 18.1819 12.0474 18.0196 12.6106 18.0234C15.2802 18.0385 17.9498 18.0297 20.6194 18.0297L20.6169 18.031Z" fill="#99E900"/>
<path d="M20.5531 16.7492C17.9686 16.7492 15.3841 16.7517 12.7984 16.748C11.7859 16.7467 11.7583 16.7127 11.8635 15.7266C12.1025 13.4801 13.0887 11.6097 14.7658 10.1254C15.2139 9.72923 15.2414 9.48269 14.7984 9.09402C14.3591 8.71038 13.9648 8.27391 13.5643 7.84625C13.2214 7.48022 13.1275 7.0689 13.508 6.67646C13.8973 6.27521 14.3078 6.38967 14.6645 6.73432C15.2352 7.28525 15.7984 7.84625 16.3453 8.42234C16.5969 8.68648 16.8334 8.74434 17.1751 8.60095C19.4204 7.65883 21.6658 7.66009 23.9248 8.58711C24.1364 8.6739 24.5331 8.55818 24.7221 8.39341C25.2878 7.90159 25.7934 7.33934 26.3229 6.80601C26.6846 6.4425 27.0763 6.25634 27.5269 6.65004C27.9086 6.98337 27.8798 7.43619 27.4342 7.91543C27.0362 8.34435 26.6282 8.76447 26.1977 9.16069C25.8535 9.47766 25.861 9.70281 26.2265 10.0148C27.8272 11.3833 28.8285 13.1216 29.1401 15.2084C29.4217 17.0914 29.3016 16.7278 27.866 16.7417C25.428 16.7668 22.9887 16.748 20.5494 16.748L20.5531 16.7492ZM16.9749 13.6902C17.4354 13.7694 17.6232 13.5304 17.6207 13.0512C17.6194 12.6285 17.4955 12.377 17.0162 12.3757C16.5706 12.3757 16.2965 12.4889 16.2965 13.0034C16.2965 13.4562 16.4229 13.7455 16.9736 13.6902H16.9749ZM24.1401 13.6927C24.6395 13.748 24.806 13.4952 24.8072 13.0248C24.8072 12.5267 24.5707 12.3719 24.1088 12.3732C23.6445 12.3732 23.4855 12.5883 23.4818 13.0273C23.478 13.4952 23.6395 13.7556 24.1401 13.6914V13.6927Z" fill="#99E900"/>
<path d="M10.4642 25.3767C10.4642 27.0094 10.4742 28.6433 10.4617 30.276C10.4504 31.7213 9.59811 32.6571 8.30149 32.6797C6.96856 32.7036 6.02738 31.7716 6.01737 30.3175C5.99359 27.0094 5.99484 23.7013 6.01737 20.3932C6.02613 19.0184 7.00861 18.0586 8.29147 18.0737C9.55306 18.0901 10.4442 19.0309 10.4592 20.4133C10.478 22.0674 10.4642 23.7214 10.4642 25.3755V25.3767Z" fill="#99E900"/>
<path d="M30.6383 25.3176C30.6383 23.7051 30.6308 22.0925 30.6408 20.4812C30.6495 19.0423 31.5069 18.0976 32.7997 18.0762C34.1026 18.0549 35.0638 19.0158 35.0851 20.4536C35.1164 22.6095 35.0964 24.7667 35.0976 26.9239C35.0976 28.076 35.1214 29.2282 35.0851 30.3779C35.0413 31.7816 34.1014 32.7024 32.7985 32.6822C31.5769 32.6621 30.6746 31.7917 30.6533 30.5313C30.6232 28.7943 30.6458 27.0559 30.6458 25.3176C30.6433 25.3176 30.6408 25.3176 30.6395 25.3176H30.6383Z" fill="#99E900"/>
</g>
<defs>
<filter id="filter0_d_1456_4302" x="0.114273" y="0.53627" width="40.8769" height="46.7716" filterUnits="userSpaceOnUse" color-interpolation-filters="sRGB">
<feFlood flood-opacity="0" result="BackgroundImageFix"/>
<feColorMatrix in="SourceAlpha" type="matrix" values="0 0 0 0 0 0 0 0 0 0 0 0 0 0 0 0 0 0 127 0" result="hardAlpha"/>
<feOffset/>
<feGaussianBlur stdDeviation="2.94286"/>
<feComposite in2="hardAlpha" operator="out"/>
<feColorMatrix type="matrix" values="0 0 0 0 0.6 0 0 0 0 0.913725 0 0 0 0 0 0 0 0 0.5 0"/>
<feBlend mode="normal" in2="BackgroundImageFix" result="effect1_dropShadow_1456_4302"/>
<feBlend mode="normal" in="SourceGraphic" in2="effect1_dropShadow_1456_4302" result="shape"/>
</filter>
</defs>
</svg>
