<svg width="45" height="48" viewBox="0 0 45 48" fill="none" xmlns="http://www.w3.org/2000/svg">
<g filter="url(#filter0_d_1456_4303)">
<path d="M24.0314 25.3452C25.6297 23.8236 26.9575 22.5693 28.2753 21.3022C28.7613 20.8344 29.2122 20.3229 29.7007 19.8577C30.6402 18.9684 31.5721 18.9196 32.3513 19.6984C33.173 20.5183 33.193 21.4127 32.2661 22.4022C30.1241 24.6846 27.932 26.9181 25.7625 29.1748C25.1462 29.8148 24.555 30.4805 23.9187 31.0999C22.8364 32.1511 21.7441 32.2385 20.712 31.1821C17.7909 28.1852 14.9274 25.1267 12.0565 22.081C11.3274 21.3099 11.3299 20.49 12.0615 19.7009C12.7755 18.9299 13.8251 18.8579 14.6193 19.6238C16.2602 21.2071 17.856 22.8418 19.4769 24.4481C19.7049 24.6743 19.9704 24.862 20.5241 25.3169C20.5241 24.5278 20.5241 24.0498 20.5241 23.5717C20.5241 18.5623 20.5166 13.5504 20.5341 8.54104C20.5391 6.95007 21.5137 6.13017 22.8339 6.55425C23.7959 6.86268 24.0239 7.64146 24.0239 8.56931C24.0239 13.4502 24.0289 18.3336 24.0314 23.2144C24.0314 23.7953 24.0314 24.3762 24.0314 25.3452Z" fill="#99E900"/>
<path d="M10.6911 41.4245C7.6673 41.4013 6.02137 39.6536 6.00634 36.5333C5.99883 34.9064 5.99382 33.282 6.01636 31.655C6.0339 30.3776 6.61511 29.7017 7.64977 29.6888C8.74204 29.6734 9.37837 30.3854 9.39591 31.6962C9.41595 33.1509 9.38839 34.6057 9.40843 36.0604C9.42597 37.3481 9.90447 37.9033 11.112 37.9084C18.7028 37.9264 26.2936 37.9213 33.8844 37.9213C35.0293 37.9213 35.5529 37.2736 35.5629 36.1529C35.578 34.6134 35.573 33.0712 35.5629 31.5317C35.5554 30.4882 35.9538 29.7942 37.0335 29.6914C38.1834 29.5809 38.8623 30.316 38.9099 31.3106C39.0151 33.4388 39.0728 35.6029 38.8247 37.7105C38.5442 40.088 36.8144 41.4142 34.4545 41.4245C30.4511 41.4425 26.4565 41.4245 22.4506 41.4245C22.4506 41.4531 13.4208 41.4459 10.6911 41.4245Z" fill="#99E900"/>
</g>
<defs>
<filter id="filter0_d_1456_4303" x="0.114273" y="0.557632" width="44.7715" height="46.7715" filterUnits="userSpaceOnUse" color-interpolation-filters="sRGB">
<feFlood flood-opacity="0" result="BackgroundImageFix"/>
<feColorMatrix in="SourceAlpha" type="matrix" values="0 0 0 0 0 0 0 0 0 0 0 0 0 0 0 0 0 0 127 0" result="hardAlpha"/>
<feOffset/>
<feGaussianBlur stdDeviation="2.94286"/>
<feComposite in2="hardAlpha" operator="out"/>
<feColorMatrix type="matrix" values="0 0 0 0 0.6 0 0 0 0 0.913725 0 0 0 0 0 0 0 0 0.5 0"/>
<feBlend mode="normal" in2="BackgroundImageFix" result="effect1_dropShadow_1456_4303"/>
<feBlend mode="normal" in="SourceGraphic" in2="effect1_dropShadow_1456_4303" result="shape"/>
</filter>
</defs>
</svg>
