<svg width="70" height="81" viewBox="0 0 70 81" fill="none" xmlns="http://www.w3.org/2000/svg">
<g filter="url(#filter0_d_1443_3436)">
<path d="M43.7471 29.9795C44.791 28.8974 46.2916 29.1592 47.0019 30.4781C47.4621 31.3319 47.367 31.9671 46.6367 32.7341C44.359 35.1252 42.0663 37.5031 39.7968 39.9042C37.7959 42.0219 35.8 44.1479 33.8407 46.3039C32.7602 47.4928 31.3211 47.7747 30.0555 46.4241C28.3864 44.6432 26.5805 42.9907 24.8463 41.2699C24.2361 40.663 23.5824 40.0326 23.6457 39.0822C23.6974 38.2951 24.0944 37.6348 24.8498 37.318C25.6168 36.9946 26.3221 37.2047 26.9141 37.7682C28.5598 39.334 30.1989 40.9081 31.8831 42.5189H31.8863C32.8668 41.455 33.8123 40.4061 34.7827 39.3823C37.7625 36.2408 40.7424 33.096 43.7471 29.9795Z" fill="#99E900"/>
<path fill-rule="evenodd" clip-rule="evenodd" d="M33.042 11.3339C34.5143 10.2851 34.8262 10.1984 36.2919 11.2289C40.0787 13.8918 44.2908 15.5426 48.7979 16.3964C50.9639 16.8066 53.1966 16.8582 55.401 17.0516C56.203 17.1217 57.0101 17.1218 57.8138 17.1801C58.966 17.2635 59.6146 17.9371 59.6213 19.1327C59.6446 23.3564 59.6413 27.58 59.6496 31.8036V32.1371H59.6079V32.1389C59.6079 36.4459 59.6997 40.7563 59.5779 45.06C59.4846 48.3932 58.1705 51.3631 56.1829 54.0177C53.6751 57.3676 50.4718 59.9788 47.0953 62.3866C43.5036 64.9478 39.8868 67.4741 36.2901 70.027C35.5631 70.5422 34.8678 70.7072 34.0741 70.162C29.5002 67.0205 24.868 63.9623 20.3575 60.7341C17.4845 58.6782 14.9399 56.2503 12.994 53.2239C10.7113 49.6756 9.97087 45.7904 10.0009 41.6568C10.0492 34.6268 10.031 27.5983 10.0443 20.5683C10.0443 19.9847 10.046 19.3995 10.1061 18.8209C10.2061 17.8387 10.8814 17.2167 11.8719 17.1767C13.481 17.1133 15.0951 17.1217 16.7009 17.0166C22.6654 16.6231 28.1513 14.8189 33.042 11.3339ZM35.4147 15.6444C34.9028 15.3393 34.5377 15.3693 34.0558 15.6577C32.9886 16.2997 31.9097 16.9332 30.7958 17.4902C25.8251 19.9763 20.521 21.0702 14.9901 21.1319C14.2397 21.1402 14.0629 21.3754 14.0695 22.0874C14.1012 25.8375 14.0845 29.5893 14.0845 33.3394L14.0862 33.3412H14.0912C14.0912 36.9812 14.0745 40.6213 14.0979 44.2596C14.1096 46.2056 14.6098 48.0315 15.5769 49.7323C17.3711 52.8821 19.8674 55.4167 22.7654 57.501C26.5689 60.2373 30.5141 62.7751 34.3909 65.4097C34.8262 65.7065 35.1396 65.6566 35.5715 65.3581C37.4424 64.0658 39.3516 62.8285 41.2375 61.5596C44.9926 59.0334 48.7579 56.5205 51.7927 53.0972C53.7669 50.8712 55.2075 48.3666 55.466 45.3469C55.6227 43.5277 55.6327 41.6917 55.6394 39.8625C55.6627 33.9164 55.6444 27.9702 55.6677 22.0257C55.671 21.302 55.5093 21.0002 54.7022 21.0119C53.4033 21.0285 52.0927 20.9586 50.8021 20.8069C45.3178 20.1582 40.167 18.4791 35.4147 15.6444Z" fill="#99E900"/>
</g>
<defs>
<filter id="filter0_d_1443_3436" x="0.27313" y="0.77313" width="69.1032" height="79.4537" filterUnits="userSpaceOnUse" color-interpolation-filters="sRGB">
<feFlood flood-opacity="0" result="BackgroundImageFix"/>
<feColorMatrix in="SourceAlpha" type="matrix" values="0 0 0 0 0 0 0 0 0 0 0 0 0 0 0 0 0 0 127 0" result="hardAlpha"/>
<feOffset/>
<feGaussianBlur stdDeviation="4.86343"/>
<feComposite in2="hardAlpha" operator="out"/>
<feColorMatrix type="matrix" values="0 0 0 0 0.6 0 0 0 0 0.913725 0 0 0 0 0 0 0 0 0.5 0"/>
<feBlend mode="normal" in2="BackgroundImageFix" result="effect1_dropShadow_1443_3436"/>
<feBlend mode="normal" in="SourceGraphic" in2="effect1_dropShadow_1443_3436" result="shape"/>
</filter>
</defs>
</svg>
