<svg xmlns="http://www.w3.org/2000/svg" width="118" height="119" viewBox="0 0 118 119" fill="none">
    <path d="M76.6448 77.5179C77.9839 77.7866 79.3185 78.0508 80.7578 77.3949C80.858 76.32 80.9582 75.2131 81.0721 73.9515H84.7797C84.8389 75.1175 84.8936 76.2289 84.9573 77.5133C87.6447 77.987 90.2364 77.9051 93.0012 77.568C93.065 76.32 93.1242 75.2086 93.188 73.9469H97.0004V77.5042C98.4169 77.6728 99.6558 77.8231 101.018 77.987C101.091 79.103 101.163 80.2189 101.232 81.2984C102.844 81.8131 106.356 81.886 109.021 81.4578C109.075 80.9158 109.121 80.3373 109.189 79.7543C109.257 79.1759 109.344 78.5974 109.444 77.8732C112.05 77.7866 114.509 77.7411 117.078 77.9096V81.4852C115.789 81.5763 114.614 81.6582 113.206 81.7584C113.156 84.4549 113.111 86.9829 113.065 89.6292H109.403C109.285 88.3766 109.171 87.1878 109.062 86.0172C107.354 85.5663 103.555 85.5299 101.296 85.9626C101.245 86.5046 101.159 87.0876 101.145 87.6706C101.132 88.2719 101.191 88.8731 101.232 89.6975C103.787 90.0574 106.356 89.6793 108.952 89.9389C109.043 91.2735 109.125 92.4487 109.221 93.8288H117.06C117.306 96.5708 117.197 99.0987 117.146 101.686C115.133 102.16 113.243 101.873 111.366 101.923C109.481 101.973 107.59 101.932 105.582 101.932C104.898 99.2809 105.677 96.5981 105.062 93.9426H101.159V101.791C99.7333 101.886 98.5536 101.968 97.1552 102.064C97.1051 104.615 97.055 107.074 97.0004 109.698H93.1652C93.1196 107.17 93.0786 104.701 93.0285 102.032C90.3093 101.859 87.7677 101.932 84.9983 101.977C84.9118 103.253 84.8344 104.419 84.7524 105.703H81.0675C80.9673 104.528 80.8671 103.367 80.7578 102.082C79.5371 101.987 78.4303 101.9 77.1002 101.8C77.0319 99.2035 76.9636 96.6664 76.8862 93.9017C74.176 93.8424 71.639 93.7878 68.9835 93.7286V89.7385L68.9106 89.816H72.8324C72.9235 88.4222 73.0009 87.247 73.0874 85.9216H76.6129C76.6812 87.1241 76.7495 88.2992 76.8224 89.5655C78.0932 90.0665 79.3321 89.8023 80.7897 89.7476C81.0129 87.0648 80.8717 84.4822 80.8762 81.7402C79.5189 81.6491 78.4212 81.5763 77.2005 81.4943C77.0319 80.0959 76.868 78.775 76.7085 77.4496L76.6448 77.5133V77.5179ZM84.9437 97.6822C87.8041 98.2288 95.5792 98.0921 97.0004 97.5273C97.383 94.5211 97.26 87.3882 96.7954 85.8715C93.985 85.4843 86.4195 85.5936 84.9437 86.0491V97.6867V97.6822Z" fill="black"/>
    <path d="M24.3278 65.6024C23.0616 65.5478 21.7953 65.4931 20.4426 65.4339C20.3423 64.0811 20.2558 62.906 20.151 61.4985H12.4807C12.3987 60.0865 12.3304 58.9023 12.2484 57.472H0.328375V53.8373C1.41243 52.9946 2.83809 53.8236 4.118 53.1632V49.4783C2.86542 49.369 1.68572 49.2642 0.396698 49.1504C-0.0314574 47.9433 0.241833 46.6543 0.19173 45.3972C0.141627 44.1947 0.18262 42.9922 0.18262 41.6576C1.54907 41.5164 2.78343 41.3935 4.14989 41.2523C4.21365 39.9769 4.27287 38.8655 4.33664 37.5765C5.54822 37.4672 6.71882 37.3624 8.13082 37.2394C8.23558 36.0324 8.33579 34.8618 8.43599 33.7094C10.0484 33.2312 25.8446 33.1583 28.2086 33.632V37.1529C27.4798 37.1985 26.7465 37.2895 26.0131 37.2895C22.2189 37.3032 18.4293 37.2895 14.6351 37.2987C13.8972 37.2987 13.1548 37.3397 12.2438 37.3715C12.1482 38.7517 12.0616 39.9359 11.9751 41.2249C10.8182 41.3024 9.70224 41.3798 8.61819 41.4572C8.09894 43.0651 8.01695 46.4083 8.41777 49.0775C10.0666 49.4783 16.3478 49.5831 20.0007 49.2688C20.5974 48.0845 20.2239 46.7864 20.2877 45.5338C20.3515 44.2676 20.3014 42.9922 20.3014 41.4937C23.1664 41.48 25.7945 41.3889 28.4317 41.562L28.3543 41.4891V45.0965C26.997 45.174 25.8218 45.2423 24.5601 45.3152C24.0637 46.5996 24.2732 47.8386 24.4007 49.2232C25.6852 49.3417 26.8603 49.4464 28.1585 49.5648C28.2222 50.2344 28.3088 50.8129 28.327 51.3959C28.3407 51.9197 28.2814 52.4435 28.245 53.0812C25.708 53.7599 23.098 52.9673 20.5519 53.5549C19.937 54.7255 20.2194 55.9143 20.3105 57.299C22.8521 57.8319 25.4392 57.2671 28.1402 57.6588V61.3437C26.9833 61.4302 25.8082 61.5168 24.3916 61.6215C24.3415 63.0107 24.2914 64.3499 24.2458 65.6844L24.3233 65.6024H24.3278Z" fill="black"/>
    <path d="M52.5589 102.055C51.3518 101.987 50.1494 101.923 48.6872 101.841C48.455 99.2081 48.6144 96.5754 48.587 93.9518C48.5597 91.3054 48.5825 88.6591 48.5825 85.8487C47.257 85.7349 46.0864 85.6301 44.8247 85.5208C44.7291 84.3001 44.6471 83.1933 44.5606 82.0728C43.4537 81.1937 42.1511 81.8678 40.9076 81.4624C40.4794 80.3601 40.5979 79.2078 40.8484 77.937C42.0281 77.8368 43.1349 77.7457 44.2736 77.65C44.884 76.3109 44.7154 75.0674 44.5196 73.6691H40.6798C40.5979 74.9171 40.525 76.0832 40.4384 77.3949H36.7217V69.7292H48.792C50.7643 69.7292 52.7365 69.7656 54.7087 69.72C56.6537 69.6745 58.6214 69.9432 60.6619 69.5151C60.7394 68.2488 60.8122 67.0691 60.8942 65.7755C62.1832 65.6981 63.3629 65.6252 64.7476 65.5387C64.8114 64.2588 64.8706 63.0836 64.9435 61.6899C66.1733 61.6261 67.3575 61.5623 68.5418 61.5031C69.348 60.3097 68.5873 58.9251 69.1704 57.5951C70.2909 57.5404 71.4706 57.4812 72.8416 57.4083C72.9281 56.0783 73.0055 54.8986 73.0875 53.5868H76.4171C76.8407 55.4178 76.868 59.1756 76.4718 61.3938C75.3923 61.4576 74.2809 61.5213 72.9281 61.6033C72.8142 62.824 72.7004 63.9946 72.5865 65.2062C71.5343 65.9942 70.1952 65.188 68.9608 65.8666C68.8698 66.9552 68.765 68.1304 68.6511 69.465C67.3985 69.5606 66.2234 69.6517 64.8114 69.761V77.486H56.7357C56.6628 78.8889 56.6036 80.0641 56.5307 81.4442C55.3328 81.5444 54.1622 81.6401 53.0553 81.7357C52.2765 82.4873 52.5498 83.3709 52.5498 84.168C52.527 89.7067 52.5406 95.2408 52.5361 100.78C52.5361 101.235 52.5042 101.686 52.4905 102.141L52.5634 102.059L52.5589 102.055ZM48.6235 73.66V77.4542C50.0127 77.8778 51.238 78.0372 52.5179 77.4132V73.66H48.6235Z" fill="black"/>
    <path d="M0.36963 1.0376H28.0084C28.432 2.6409 28.5732 25.1919 28.1769 29.0317H0.51083C0.0917851 27.524 -0.049415 4.81356 0.36963 1.0376ZM24.2643 4.93654C17.4776 4.97754 10.9186 4.87277 4.40066 5.00486C3.94518 7.87441 4.04083 23.4611 4.49632 25.0507H24.2689V4.93654H24.2643Z" fill="black"/>
    <path d="M89.0845 28.9588V1.32454C90.7106 0.905496 113.84 0.78707 117.079 1.18334V28.8449C115.507 29.2321 92.4824 29.3505 89.0845 28.9588ZM93.0654 5.0504C92.9698 11.7688 92.988 18.3824 93.0517 24.9642C96.5134 25.4014 111.59 25.2739 113.129 24.823C113.453 20.7737 113.321 6.8359 112.92 5.0504H93.0654Z" fill="black"/>
    <path d="M28.168 117.96H0.533769C0.0919497 116.393 -0.0629149 93.8197 0.351576 89.9708H28.0268C28.4367 91.4739 28.5779 113.975 28.168 117.96ZM24.2645 93.9472H4.3735C3.93624 96.8532 4.04555 112.358 4.53747 114.057C11.0509 114.034 17.6053 114.111 24.2645 114.002V93.9472Z" fill="black"/>
    <path d="M76.709 41.5392C76.8593 40.2684 77.0096 38.9976 77.1736 37.5719C78.3214 37.4581 79.4874 37.3396 80.7673 37.2121V33.5819C79.0137 33.1355 75.2059 33.09 72.9011 33.4862C72.7827 34.6158 72.6597 35.791 72.5185 37.121H69.0341V29.3778C70.191 29.2912 71.3707 29.2001 72.8009 29.0954C72.8738 27.8792 72.9421 26.7086 73.0104 25.5153C71.6895 24.7728 70.4324 25.1554 69.0295 25.1782C68.9475 25.8341 68.8564 26.408 68.8109 26.9819C68.7608 27.5786 68.7471 28.1798 68.7107 28.9587H64.9985C64.9074 27.7745 64.8208 26.5993 64.7115 25.2055C63.468 25.1372 62.2883 25.0734 60.9401 24.996C60.512 22.3952 61.0039 19.7443 60.6213 16.9339H52.7778V13.1625C56.7497 13.1625 60.5848 13.1443 64.6068 13.1762C64.6933 14.4516 64.7707 15.5538 64.8573 16.8884C66.0643 16.9932 67.2258 17.0888 68.5831 17.2072C68.7016 18.4416 68.82 19.6167 68.9475 20.9468H72.9376V13.322H76.6042C76.8638 15.9956 76.6725 18.6329 76.7317 21.261C76.7864 23.8163 76.6179 26.3807 76.8547 29.0817H80.7263C80.8402 27.8564 80.9541 26.6859 81.0771 25.3558H84.4522C84.9578 26.8225 85.1172 37.3943 84.6663 41.07C82.0518 41.7259 79.3098 41.0382 76.6452 41.4754L76.709 41.5392Z" fill="black"/>
    <path d="M108.98 33.5637V36.8477C107.855 37.6402 106.552 37.0344 105.331 37.4444C104.807 38.6469 104.971 39.8721 105.272 41.2568C105.905 41.3251 106.484 41.4025 107.067 41.4526C107.654 41.5027 108.242 41.521 108.925 41.562V45.0874C107.691 45.1739 106.584 45.2514 105.286 45.3425C105.144 46.5768 105.012 47.7565 104.853 49.1731H97.506C96.7362 50.5487 97.3283 51.9151 96.8911 53.2315C95.6886 53.3089 94.5089 53.3818 93.1789 53.4638C93.0696 54.73 92.9648 55.9051 92.8418 57.2807C90.3139 57.5494 87.8497 57.39 85.3537 57.3764C84.716 56.1329 84.9528 54.9623 85.1305 53.5867C86.3512 53.5002 87.5309 53.4182 88.8655 53.3271V49.4327C87.5263 49.2186 86.2874 49.0957 84.9528 49.6514C84.8936 50.781 84.839 51.9014 84.7706 53.1768H81.0721C80.9582 51.9333 80.8535 50.7582 80.7305 49.3917C79.5371 49.3188 78.4349 49.2551 77.1641 49.1822V45.5884C77.9748 45.552 78.781 45.4928 79.5827 45.4928C85.882 45.4837 92.1814 45.4928 98.4762 45.4837C99.2915 45.4837 100.107 45.4245 101.077 45.3835V41.4754C99.8563 41.398 98.6766 41.3297 97.3101 41.2431C97.2236 40.0406 97.1416 38.8655 97.0551 37.5856C94.4588 36.7885 91.7487 37.7814 89.157 36.9843V33.632C91.0017 33.2494 106.37 33.1947 108.971 33.5682L108.98 33.5637Z" fill="black"/>
    <path d="M32.4631 41.5529H40.2609C40.8758 44.0626 40.27 46.5768 40.6754 49.2004C41.8369 49.328 42.9984 49.451 44.2783 49.5922V53.2133C43.1442 53.2907 42.0464 53.3681 40.8075 53.4547C40.7073 54.0058 40.5479 54.5023 40.5433 54.9942C40.516 57.6451 40.5433 60.3006 40.5251 62.9515C40.5251 63.6939 40.4477 64.4318 40.393 65.402C39.0858 65.4977 37.9243 65.5796 36.6353 65.6707C36.5305 66.9598 36.4349 68.1349 36.3256 69.4422H32.6407V61.7171C33.8842 61.626 35.0639 61.5441 36.4258 61.4438C36.7264 58.843 36.567 56.306 36.5396 53.5275C35.2233 53.4182 34.0527 53.3226 32.7227 53.2133C32.2809 51.2866 32.5769 49.328 32.5268 47.3922C32.4767 45.4245 32.5268 43.4522 32.5268 41.48L32.4585 41.5483L32.4631 41.5529Z" fill="black"/>
    <path d="M97.2104 65.7755C97.1193 66.9871 97.0328 68.1622 96.9326 69.4649C95.6618 69.5651 94.4821 69.6562 93.1839 69.7564C93.1202 70.426 93.0518 71.0045 93.0109 71.5875C92.9744 72.1067 92.9608 72.626 92.9243 73.3365C90.3144 73.71 87.7773 73.4185 85.1082 73.5233V69.8475C86.3016 69.7747 87.4813 69.7018 88.7475 69.6198C89.2804 68.349 89.0117 67.1101 88.9252 65.6525C85.0126 65.3929 81.1683 65.6753 77.1782 65.484V61.8766C78.8635 61.5076 98.3309 61.4256 100.964 61.79V65.1469C99.9388 65.9668 98.6315 65.2836 97.2104 65.7755Z" fill="black"/>
    <path d="M32.7315 9.26819H36.3025C36.4163 10.5618 36.5211 11.7369 36.635 13.0077C37.9103 13.117 39.09 13.2218 40.2242 13.3174C40.6615 15.4446 40.6341 23.1832 40.1923 24.9915C39.1037 25.0553 37.9832 25.119 36.7671 25.1919C36.0064 27.7927 36.9584 30.4892 36.184 33.0946H32.8499C32.4445 31.3227 32.3534 12.1605 32.7315 9.27274V9.26819Z" fill="black"/>
    <path d="M105.259 57.4401H108.953C109.103 56.1693 109.253 54.9395 109.413 53.5913H112.974C113.075 54.8712 113.166 56.0418 113.275 57.4083C114.546 57.472 115.721 57.5267 117.028 57.595C117.374 60.1958 117.142 62.7146 117.169 65.3974C114.496 65.6662 112.036 65.5478 109.39 65.5068C109.262 64.154 109.148 62.9788 109.012 61.5668H101.369C101.296 60.1548 101.232 58.9797 101.168 57.7499C100.002 57.012 98.6176 57.7681 97.3149 57.1532V53.6414C99.729 53.236 102.18 53.523 104.817 53.4683C104.967 54.8257 105.099 56.0509 105.254 57.4401H105.259Z" fill="black"/>
    <path d="M48.3818 102.055V105.571C45.8584 106.273 43.2485 105.43 40.6386 106.109C40.5703 107.329 40.5065 108.514 40.4336 109.898C37.8055 109.798 35.2776 109.998 32.6357 109.73V93.9973C35.2138 93.8333 37.7326 93.9244 40.3926 93.929V97.7095C39.181 97.8051 38.0105 97.8962 36.7579 97.9964C36.2523 99.2536 36.4937 100.497 36.6212 101.996C38.6071 102.014 40.5475 102.041 42.4879 102.05C44.3736 102.059 46.2547 102.05 48.3818 102.05V102.055Z" fill="black"/>
    <path d="M52.4858 102.137H60.4523C60.9988 100.657 60.6754 99.2947 60.7757 97.9692L60.6982 98.0421H64.5698C64.6746 99.3448 64.7702 100.579 64.8796 101.923C66.1595 102.014 67.3346 102.1 68.6829 102.201C68.7557 103.43 68.8195 104.542 68.8878 105.671C69.9901 106.491 71.311 105.826 72.5545 106.35V109.575C70.687 109.967 63.003 109.98 60.8986 109.584C60.8212 108.45 60.7392 107.27 60.6527 105.977H56.7036C56.649 107.22 56.5989 108.336 56.5488 109.516C55.3827 110.131 54.2076 109.866 52.8867 109.721C52.3173 107.165 52.8776 104.583 52.5678 102.055L52.495 102.137H52.4858Z" fill="black"/>
    <path d="M52.7729 8.77176V5.21898C54.0437 5.11878 55.2143 5.02768 56.5945 4.91836C56.6582 3.66123 56.7174 2.48608 56.7767 1.3337C58.4619 0.910104 66.1505 0.837227 68.6602 1.22439C68.7513 2.36765 68.847 3.54736 68.9517 4.89559C70.1588 5.00491 71.3203 5.10967 72.5865 5.22354V8.58501C70.9331 9.08604 56.0023 9.2318 52.7729 8.7672V8.77176Z" fill="black"/>
    <path d="M44.5651 8.92206C45.8086 9.03593 46.9792 9.14524 48.2636 9.26822C48.6645 10.5071 48.414 11.8007 48.4595 13.0579C48.5005 14.2558 48.4686 15.4583 48.4686 16.7974H44.8475C44.7336 15.6359 44.6289 14.5336 44.5287 13.4815C43.4492 12.4429 42.1101 13.1808 40.8165 12.6889C40.7163 11.6094 40.6024 10.4388 40.484 9.17257C39.1995 9.06326 38.0198 8.96305 36.7217 8.85373V1.32458C38.3523 0.905537 45.4078 0.823549 48.373 1.20616C48.4048 1.75729 48.4641 2.34031 48.4595 2.92789C48.4595 3.52002 48.3866 4.11214 48.3411 4.8227C47.0748 4.9138 45.8951 5.00034 44.5651 5.09599V8.92206Z" fill="black"/>
    <path d="M68.9879 89.7431C67.6761 89.7704 66.3643 89.7977 64.9341 89.8296C64.6335 91.2963 64.7519 92.6126 64.7929 93.9198L64.8703 93.8424C63.4811 93.8424 62.0919 93.8424 60.7027 93.8424L60.7801 93.9244V85.8304C59.4182 85.7257 58.1793 85.6346 56.8311 85.5298V81.9452C59.3499 81.3804 61.9416 81.9816 64.4376 81.5808C65.2803 80.4876 64.4832 79.1576 65.13 77.8914H68.7237C68.783 81.8495 68.8467 85.835 68.9105 89.8205L68.9834 89.7431H68.9879Z" fill="black"/>
    <path d="M97.2967 114.13C98.6039 114.066 99.7198 114.011 100.827 113.952C101.678 112.832 100.909 111.511 101.542 110.153C102.558 110.058 103.719 109.953 105.076 109.825C105.199 108.668 105.313 107.575 105.441 106.373C106.625 105.835 107.919 106.177 109.167 106.118C110.364 106.059 111.572 106.104 112.783 106.104C113.325 107.329 113.102 108.432 113.038 109.702C111.817 109.807 110.647 109.907 109.294 110.021C108.757 112.581 109.294 115.155 108.975 117.651C107.363 118.083 101.177 118.197 97.3604 117.856C97.0461 116.717 97.1691 115.537 97.3012 114.125L97.2967 114.13Z" fill="black"/>
    <path d="M0.296875 85.5436V65.7391C2.86581 65.5797 5.32997 65.6936 7.81236 65.6617C8.37261 67.0509 8.38172 68.2534 7.76226 69.5105C6.61444 69.5925 5.51217 69.67 4.16849 69.7611C4.16394 71.6103 4.15938 73.3275 4.15483 75.0447C4.15483 76.7846 4.18671 78.5246 4.14572 80.2645C4.10017 81.9817 4.35524 83.7216 3.93164 85.539H0.296875V85.5436Z" fill="black"/>
    <path d="M56.686 49.1914C54.0533 49.3554 51.4251 49.2688 48.7104 49.2278V45.6158C50.0086 45.5247 51.1883 45.4428 52.5684 45.3426C52.6231 42.7007 52.6732 40.1683 52.7233 37.5173H56.5083C56.5721 38.7335 56.6313 39.9132 56.7088 41.3252C59.2731 41.6395 61.8421 41.3161 64.4474 41.521C64.9394 42.7053 64.7981 43.8577 64.5659 45.1649H57.0094C56.3125 46.5632 56.7361 47.9388 56.6085 49.2597L56.6814 49.1914H56.686Z" fill="black"/>
    <path d="M80.6716 12.9531H77.0732V1.0331C79.6558 0.964781 82.1109 0.960226 84.7163 1.04677V4.83184C83.4682 4.90927 82.3523 4.9776 81.2728 5.04592C80.6716 6.59456 80.5941 10.6848 81.1407 13.0169C82.2612 13.108 83.4364 13.2036 84.7299 13.3038V20.71C83.6459 21.2657 82.4616 20.9879 81.1908 20.8968C80.4939 18.3506 81.2591 15.7407 80.667 12.9531H80.6716Z" fill="black"/>
    <path d="M60.7759 61.5715V53.473C59.373 53.391 58.1933 53.3226 56.7813 53.2452C56.7494 51.8651 56.7176 50.526 56.6857 49.1914L56.6128 49.2597H64.1738C65.2123 50.608 64.3651 52.0291 65.0484 53.3272C66.1597 53.4046 67.3349 53.4912 68.6558 53.5823V57.2945C67.3622 57.3765 66.1825 57.4539 64.8889 57.5359C64.7933 58.8295 64.7067 60.0046 64.6065 61.3756C63.2401 61.4212 61.9784 61.4622 60.7213 61.5031L60.785 61.5669L60.7759 61.5715Z" fill="black"/>
    <path d="M48.6963 117.833V114.408C50.3041 113.961 65.5674 113.843 68.3914 114.248C69.061 115.346 68.7968 116.521 68.6784 117.673C66.9566 118.079 52.3402 118.202 48.6963 117.833Z" fill="black"/>
    <path d="M28.3771 77.5179C29.8073 77.6135 31.2376 77.741 32.6723 77.7957C33.7928 77.8413 34.9224 77.8048 35.9473 77.8048C36.8582 79.0437 36.1796 80.3738 36.717 81.5944C37.8967 81.6855 39.0719 81.7766 40.3791 81.8768V85.5617C39.1083 85.63 37.9377 85.6938 36.6168 85.7667C36.5121 87.1012 36.4164 88.3447 36.3116 89.6383H32.5721V82.2321C31.2649 81.1617 29.8711 81.9087 28.4454 81.3804V77.4404L28.3726 77.5224L28.3771 77.5179Z" fill="black"/>
    <path d="M32.6904 114.262C35.1819 113.756 37.6871 114.276 40.1467 113.938C41.0668 112.859 40.3881 111.538 40.88 110.162C43.285 109.876 45.7719 109.885 48.3545 110.222V113.838C47.0701 113.902 45.8858 113.966 44.5102 114.034C44.451 115.264 44.3964 116.444 44.3372 117.605C42.8067 118.092 36.225 118.22 32.6904 117.828V114.262Z" fill="black"/>
    <path d="M100.776 73.619C99.6512 73.5461 98.5353 73.4778 97.3101 73.4003V69.8612H104.857C105.003 71.1457 105.144 72.38 105.29 73.6599C106.606 73.751 107.718 73.8239 108.939 73.9105V77.24C107.814 77.8595 106.506 77.4541 105.263 77.527C104.056 77.5953 102.844 77.5407 101.646 77.5407C100.726 76.3382 101.819 74.7531 100.776 73.6144V73.619Z" fill="black"/>
    <path d="M76.7085 77.4542H69.1748C68.7421 76.3428 68.9334 75.2405 69.0153 73.8832C70.2861 73.8239 71.5205 73.7693 72.9507 73.701V65.9304C74.2261 65.4977 75.3238 65.6662 76.6219 65.7254C76.8451 67.7341 76.713 69.6836 76.7267 71.6194C76.7358 73.5825 76.6766 75.5457 76.6492 77.5134L76.713 77.4496L76.7085 77.4542Z" fill="black"/>
    <path d="M44.8066 24.9778V21.5981C46.3826 21.006 49.7669 20.9194 52.4314 21.4205C52.4633 22.6184 52.5134 23.8755 52.5317 25.1327C52.5499 26.3397 52.5317 27.5422 52.5317 28.7492C51.2791 29.4552 50.0811 29.0043 48.742 29.1683C48.6418 27.8246 48.5507 26.6449 48.446 25.2147C47.2571 25.1372 46.0911 25.0598 44.8066 24.9778Z" fill="black"/>
    <path d="M76.9542 113.884C77.6693 113.943 78.2569 114.011 78.8445 114.039C79.3637 114.061 79.8875 114.043 80.4569 114.043C81.1082 115.273 80.6254 116.475 80.8349 117.655C79.4913 118.284 78.1931 117.928 76.9451 117.992C75.7472 118.056 74.5447 118.006 73.3969 118.006C72.8959 116.321 72.8184 112.727 73.2101 110.213C73.5381 110.144 73.8979 110.026 74.2578 110.008C74.9273 109.971 75.6014 109.998 76.5078 109.998C76.6627 111.338 76.8039 112.554 76.9588 113.884H76.9542Z" fill="black"/>
    <path d="M15.9516 85.6073H8.46804C8.17653 83.1021 8.36783 80.6425 8.34961 78.1191C9.53387 77.6318 10.6316 77.8003 11.8796 77.946C12.0208 79.1394 12.1529 80.3055 12.3032 81.5535C13.5512 81.6582 14.6626 81.7539 15.9516 81.8587V85.6027V85.6073Z" fill="black"/>
    <path d="M92.8879 114.157V117.901C90.2825 118.115 87.7546 117.97 85.0991 117.992V114.162H92.8879V114.157Z" fill="black"/>
    <path d="M44.8296 61.7081H52.2312C52.7596 62.8514 52.5409 64.0265 52.3724 65.4067C49.89 65.6663 47.4395 65.5524 44.8296 65.4978V61.7081Z" fill="black"/>
    <path d="M76.6452 41.4755V44.8324C75.1102 45.3198 71.5711 45.3881 69.0386 44.9599V41.5438H76.7089L76.6452 41.48V41.4755Z" fill="black"/>
    <path d="M32.5311 41.4845C31.1419 41.4845 29.7481 41.4799 28.3589 41.4754L28.4363 41.5483V37.4854H32.3307C32.3763 38.8974 32.4172 40.2228 32.4628 41.5483L32.5311 41.4799V41.4845Z" fill="black"/>
    <path d="M60.7079 93.8424C60.7079 95.2408 60.7033 96.6391 60.6988 98.0375L60.7762 97.9646C59.5145 97.8963 58.2483 97.8279 56.8545 97.7551V94.1841C58.098 93.6284 59.4644 94.0201 60.7853 93.9199L60.7079 93.8379V93.8424Z" fill="black"/>
    <path d="M64.8708 37.3716C63.6045 37.3033 62.3383 37.2304 60.9263 37.153V33.6139C61.9967 33.0536 63.1764 33.3497 64.5975 33.4317C64.6658 34.789 64.7341 36.1145 64.8024 37.4354L64.8708 37.3671V37.3716Z" fill="black"/>
    <path d="M64.8024 37.4399H68.6831V41.2022H64.8662V37.3716L64.7979 37.4399H64.8024Z" fill="black"/>
    <path d="M60.7118 61.5077V65.0923C59.3727 65.7892 58.1702 65.6025 56.8311 65.3064V61.6944C58.152 61.6534 59.4638 61.6125 60.7755 61.5715L60.7118 61.5077Z" fill="black"/>
    <path d="M20.1236 69.5515C18.7389 69.556 17.5501 69.9022 16.3477 69.137V65.8985C17.5 65.4567 18.6888 65.7072 19.946 65.6935C20.3878 66.9006 20.1737 68.0894 20.1191 69.5515H20.1236Z" fill="black"/>
    <path d="M64.7979 93.92H68.4463C69.0156 95.1953 68.8471 96.3568 68.6103 97.705H64.8753V93.8425L64.7979 93.92Z" fill="black"/>
    <path d="M24.2506 65.6844H28.1906V69.26C27.061 69.8612 25.9041 69.6517 24.5012 69.3829C24.442 68.1076 24.3827 66.855 24.3235 65.6024L24.2461 65.6844H24.2506Z" fill="black"/>
    <path d="M60.5664 25.3194V28.9815H56.8633V25.5244C57.9428 24.9049 59.1225 25.201 60.5664 25.3194Z" fill="black"/>
    <path d="M3.99036 37.1074H0.282715V33.4772H3.99036V37.1074Z" fill="black"/>
    <path d="M52.4044 53.6323V57.2807H48.9564C48.3187 56.1557 48.5646 55.0033 48.7423 53.8054C49.9265 53.2178 51.0744 53.4228 52.4044 53.6323Z" fill="black"/>
    <path d="M48.7144 36.9024V33.4543H52.2216C52.7864 34.5521 52.4994 35.7272 52.4357 36.957C51.1694 37.4353 49.976 37.4535 48.7144 36.9024Z" fill="black"/>
    <path d="M24.4878 85.5208V81.8633H28.2137V85.3751C27.0704 85.9034 25.8998 85.6757 24.4878 85.5208Z" fill="black"/>
    <path d="M109.472 37.5037H112.975V40.9562C111.936 41.6167 110.811 41.2477 109.663 41.307C108.962 40.0407 109.094 38.8246 109.472 37.5037Z" fill="black"/>
    <path d="M117.115 110.308V113.647C115.913 114.18 114.733 113.834 113.403 113.92V110.363C114.551 109.771 115.717 109.93 117.115 110.308Z" fill="black"/>
    <path d="M40.7349 29.0681V25.3331H44.2558V28.9406C43.1626 29.305 42.0649 29.1364 40.7349 29.0727V29.0681Z" fill="black"/>
    <path d="M48.4006 29.4826V33.0763H44.7749V29.5281C45.9774 29.0635 47.1753 29.1182 48.4006 29.4826Z" fill="black"/>
    <path d="M28.4504 77.4359H24.5195V73.9424H28.2408C28.2864 75.1631 28.3274 76.3382 28.3729 77.5179L28.4458 77.4359H28.4504Z" fill="black"/>
    <path d="M113.357 45.6113H117.065V49.1459H113.371C113.321 48.4718 113.248 47.8887 113.243 47.3012C113.239 46.7865 113.307 46.2672 113.357 45.6113Z" fill="black"/>
    <path d="M44.2696 93.6922H40.7715V89.98H44.2696V93.6922Z" fill="black"/>
    <path d="M68.9747 49.2051H65.0849C64.6886 48.0163 64.8116 46.8685 64.9938 45.6113H68.6832C68.7561 46.9095 68.8244 48.0937 68.8927 49.278L68.9702 49.2051H68.9747Z" fill="black"/>
    <path d="M24.2188 81.508H20.461C20.4064 80.3601 20.3563 79.2897 20.3062 78.1738C21.6271 77.5908 22.7931 77.814 24.0092 77.9233C24.4738 79.0347 24.2415 80.1461 24.2233 81.508H24.2188Z" fill="black"/>
    <path d="M68.8926 49.278C70.0814 49.3736 71.2657 49.4693 72.5729 49.574V53.1997H68.9746V49.2051L68.8971 49.278H68.8926Z" fill="black"/>
    <path d="M40.7715 37.1119V33.4543H44.2878V36.9024C43.1992 37.5309 42.1061 37.2759 40.7715 37.1119Z" fill="black"/>
    <path d="M113.02 69.843V73.3548H109.531C108.921 72.2389 109.199 71.1002 109.44 69.843H113.02Z" fill="black"/>
    <path d="M12.526 41.5438H15.8875C16.2883 42.6962 16.1289 43.7894 16.0287 45.051H12.5215V41.5438H12.526Z" fill="black"/>
    <path d="M44.7837 45.1103V41.7534C45.9178 41.2751 47.0292 41.4846 48.2089 41.5484C48.6416 42.678 48.4367 43.7803 48.3957 44.9691C47.2524 45.3836 46.1547 45.2196 44.7837 45.1149V45.1103Z" fill="black"/>
    <path d="M89.1939 89.989H92.8468V93.4963C91.7582 94.1112 90.5876 93.6876 89.4216 93.7832C88.8204 92.4851 89.0344 91.3282 89.1939 89.9845V89.989Z" fill="black"/>
    <path d="M8.49082 9.19983H19.8825C20.2788 10.8669 20.3744 17.4122 20.0647 20.7099C18.4568 21.0925 11.7976 21.1836 8.63202 20.8693C8.2312 19.2842 8.13554 12.5203 8.49082 9.19983Z" fill="black"/>
    <path d="M108.961 9.22717V20.6462C107.495 21.1108 100.066 21.2018 97.2964 20.7691V9.23173H108.961V9.22717Z" fill="black"/>
    <path d="M20.0831 97.9874V109.775H8.60038C8.00825 108.605 8.3863 107.307 8.31798 106.063C8.24966 104.783 8.30432 103.494 8.30432 102.21V98.3153C9.58423 97.7141 10.8778 98.0648 12.1258 98.0056C13.4103 97.9418 14.6948 97.9919 15.9838 97.9919H20.0831V97.9874Z" fill="black"/>
  </svg>