<svg width="26" height="26" viewBox="0 0 26 26" fill="none" xmlns="http://www.w3.org/2000/svg">
<rect width="26" height="26" fill="#1FE04D"/>
<path d="M8.38106 18.5745L10.8082 14.9012V9.55542H14.3408L15.7482 7.42667H15.2257H15.156H5.26113L3.9624 9.55542H8.38106V18.5745Z" fill="black"/>
<path d="M17.6416 17.2655V9.05241L15.2145 12.7245V17.2655H12.2135L10.8062 19.3943H10.8667H20.334L22.0603 17.2655H17.6416Z" fill="black"/>
<path d="M13 21.0027C8.58705 21.0027 4.99725 17.4129 4.99725 13C4.99725 12.5507 5.03613 12.1105 5.10815 11.6818H3.08688C3.02972 12.1139 3 12.553 3 13C3 18.5139 7.4861 23 13 23C16.9888 23 20.4391 20.6517 22.0431 17.2654H19.7657C18.347 19.5085 15.8455 21.0027 13 21.0027Z" fill="black"/>
<path d="M13 3C8.69682 3 5.02013 5.73237 3.61279 9.55311H5.77925C7.06998 6.8619 9.82063 4.9984 13 4.9984C17.4129 4.9984 21.0027 8.5882 21.0027 13.0011C21.0027 13.7408 20.8998 14.4576 20.7112 15.1379H22.7702C22.9211 14.4496 23.0011 13.734 23.0011 13.0011C23.0011 7.48725 18.515 3.00114 13.0011 3.00114L13 3Z" fill="black"/>
</svg>
