<svg xmlns="http://www.w3.org/2000/svg" width="23" height="19" fill="none" xmlns:v="https://vecta.io/nano"><g clip-path="url(#A)"><path d="M18.786 2.406c-1.398-.704-2.893-1.216-4.456-1.507a14.51 14.51 0 0 0-.571 1.276c-1.662-.269-3.308-.269-4.939 0A14.1 14.1 0 0 0 8.242.899a16.65 16.65 0 0 0-4.46 1.511C.962 6.998.198 11.472.58 15.882c1.87 1.504 3.683 2.417 5.465 3.015.44-.652.832-1.345 1.171-2.075a11.18 11.18 0 0 1-1.843-.966c.155-.123.306-.252.452-.385 3.554 1.79 7.416 1.79 10.927 0a11.24 11.24 0 0 0 .452.385c-.585.379-1.203.704-1.847.968.338.729.729 1.423 1.17 2.075 1.784-.598 3.598-1.511 5.469-3.017.448-5.113-.766-9.545-3.211-13.476zM7.7 13.17c-1.067 0-1.942-1.072-1.942-2.378s.856-2.38 1.942-2.38 1.96 1.072 1.942 2.38c.002 1.306-.856 2.378-1.942 2.378zm7.176 0c-1.067 0-1.942-1.072-1.942-2.378s.856-2.38 1.942-2.38 1.961 1.072 1.942 2.38c0 1.306-.856 2.378-1.942 2.378z" fill="#000c1a"/></g><defs><clipPath id="A"><path fill="#fff" transform="translate(.488 .899)" d="M0 0h21.6v18H0z"/></clipPath></defs></svg>