<svg xmlns="http://www.w3.org/2000/svg" width="19" height="19" fill="none" xmlns:v="https://vecta.io/nano"><path fill-rule="evenodd" d="M5.144.92h9c2.475 0 4.5 2.025 4.5 4.5v9c0 2.475-2.025 4.5-4.5 4.5h-9c-2.475 0-4.5-2.025-4.5-4.5v-9c0-2.475 2.025-4.5 4.5-4.5zm4.5 4.438c2.519 0 4.562 2.042 4.562 4.562s-2.042 4.561-4.562 4.561A4.56 4.56 0 0 1 5.082 9.92c0-2.519 2.042-4.561 4.562-4.561zm5.665-.211a1.07 1.07 0 1 0-2.14 0 1.07 1.07 0 1 0 2.14 0zM9.644 6.994c1.616 0 2.926 1.31 2.926 2.926s-1.31 2.926-2.926 2.926-2.926-1.31-2.926-2.926 1.31-2.926 2.926-2.926z" fill="#000c1a"/></svg>