<svg xmlns="http://www.w3.org/2000/svg" width="19" height="19" fill="none" xmlns:v="https://vecta.io/nano"><path fill-rule="evenodd" d="M11.725 14.57c-.242 0-.4-.125-.567-.249l-.157-.118-.316-.234-.947-.704-.632-.469a.7.7 0 0 0-.092.078l-.261.252c-.126.111-.383.384-.522.512l-.09.08-.09.09c-.103.104-.315.239-.491.239 0-.281.079-.897.095-1.224l.039-.54c.003-.036.008-.033.009-.076l.009-.152c.001-.036.008-.117.014-.157s.001-.117.016-.145l.609-.558.432-.394.089-.082.347-.317c.033-.031.045-.048.084-.078l.955-.876c.031-.03.054-.043.085-.076l1.477-1.351c.047-.038.231-.18.114-.235-.093-.043-.204.004-.273.048l-.831.526-.67.421-1.008.634-1.001.631-.67.421-.669.422-.169.107c-.184.121-.144.115-.344.052l-2.012-.617c-.132-.043-.39-.087-.39-.274 0-.11.083-.21.149-.259.177-.131.494-.232.71-.314l.15-.058 2.074-.801.898-.346.294-.114.15-.059 1.335-.515 1.192-.459.445-.172.746-.288.965-.373c.228-.085.376-.086.548.097.203.216.083.595.029.849l-.106.501-.531 2.496-.106.501-.636 2.989c-.061.274-.107.736-.478.736zM.243 9.921c0 1.071.174 1.929.485 2.864.113.34.25.67.4.994l.091.184.092.183.25.452a9.14 9.14 0 0 0 .941 1.298l.479.498c.115.115.318.275.446.389.38.339.886.656 1.321.918l.177.098a7.97 7.97 0 0 0 .754.366l.202.083.407.153c.649.215 1.078.337 1.801.438 1.113.156 2.386.079 3.451-.232l.638-.197.4-.15.392-.168.74-.37.6-.367 1.235-.995.204-.213c.026-.027.034-.044.062-.072.251-.249.758-.92.915-1.172l.514-.881.089-.186.091-.193.041-.092.044-.098.08-.195a8.19 8.19 0 0 0 .348-1.037l.235-1.16.052-.507c.006-.043 0-.083.007-.126.016-.106.015-.472.015-.592a8.15 8.15 0 0 0-.249-1.991l-.258-.862a7.56 7.56 0 0 0-.562-1.251l-.581-.966c-.184-.277-.389-.538-.599-.797a6.88 6.88 0 0 0-.469-.509l-.601-.519-.482-.362-.084-.058c-.108-.081-.227-.147-.339-.221a6.8 6.8 0 0 0-.718-.401c-1.735-.868-3.539-1.186-5.596-.845-.726.12-1.476.365-2.149.668l-.38.18-.632.346-.596.391-.557.43c-.015.012-.02.019-.034.032l-.55.512c-.028.028-.037.047-.066.076l-.517.602c-.294.359-.566.776-.792 1.182-.24.432-.448.878-.621 1.343l-.076.209-.069.206L.6 7.45c-.05.149-.083.298-.12.449-.143.59-.237 1.291-.237 2.021h0z" fill="#000c1a"/></svg>